<svg width="24" height="24" viewBox="0 0 24 24" fill="none" xmlns="http://www.w3.org/2000/svg">
<g id="fi-rr-sign-out-alt" clip-path="url(#clip0_57_2035)">
<path id="Vector" d="M11.476 15C11.2108 15 10.9564 15.1054 10.7689 15.2929C10.5814 15.4804 10.476 15.7348 10.476 16V19C10.476 19.7956 10.1599 20.5587 9.59732 21.1213C9.03471 21.6839 8.27165 22 7.476 22H5C4.20435 22 3.44129 21.6839 2.87868 21.1213C2.31607 20.5587 2 19.7956 2 19V5C2 4.20435 2.31607 3.44129 2.87868 2.87868C3.44129 2.31607 4.20435 2 5 2H7.476C8.27165 2 9.03471 2.31607 9.59732 2.87868C10.1599 3.44129 10.476 4.20435 10.476 5V8C10.476 8.26522 10.5814 8.51957 10.7689 8.70711C10.9564 8.89464 11.2108 9 11.476 9C11.7412 9 11.9956 8.89464 12.1831 8.70711C12.3706 8.51957 12.476 8.26522 12.476 8V5C12.4744 3.67441 11.9471 2.40356 11.0098 1.46622C10.0724 0.528882 8.80159 0.00158786 7.476 0H5C3.67441 0.00158786 2.40356 0.528882 1.46622 1.46622C0.528882 2.40356 0.00158786 3.67441 0 5L0 19C0.00158786 20.3256 0.528882 21.5964 1.46622 22.5338C2.40356 23.4711 3.67441 23.9984 5 24H7.476C8.80159 23.9984 10.0724 23.4711 11.0098 22.5338C11.9471 21.5964 12.4744 20.3256 12.476 19V16C12.476 15.7348 12.3706 15.4804 12.1831 15.2929C11.9956 15.1054 11.7412 15 11.476 15Z" fill="#3853A4"/>
<path id="Vector_2" d="M22.8671 9.87933L18.2811 5.29333C18.1889 5.19782 18.0785 5.12163 17.9565 5.06922C17.8345 5.01681 17.7033 4.98923 17.5705 4.98807C17.4377 4.98692 17.3061 5.01222 17.1832 5.0625C17.0603 5.11278 16.9486 5.18704 16.8547 5.28093C16.7608 5.37482 16.6866 5.48647 16.6363 5.60937C16.586 5.73227 16.5607 5.86395 16.5619 5.99673C16.563 6.12951 16.5906 6.26073 16.643 6.38273C16.6954 6.50473 16.7716 6.61508 16.8671 6.70733L21.1291 10.9703L6.00012 11.0003C5.73491 11.0003 5.48055 11.1057 5.29302 11.2932C5.10548 11.4808 5.00012 11.7351 5.00012 12.0003C5.00012 12.2655 5.10548 12.5199 5.29302 12.7074C5.48055 12.895 5.73491 13.0003 6.00012 13.0003L21.1881 12.9693L16.8651 17.2933C16.7696 17.3856 16.6934 17.4959 16.641 17.6179C16.5886 17.7399 16.561 17.8711 16.5599 18.0039C16.5587 18.1367 16.584 18.2684 16.6343 18.3913C16.6846 18.5142 16.7588 18.6258 16.8527 18.7197C16.9466 18.8136 17.0583 18.8879 17.1812 18.9381C17.3041 18.9884 17.4357 19.0137 17.5685 19.0126C17.7013 19.0114 17.8325 18.9838 17.9545 18.9314C18.0765 18.879 18.1869 18.8028 18.2791 18.7073L22.8651 14.1213C23.4278 13.559 23.7441 12.7962 23.7445 12.0007C23.7449 11.2052 23.4293 10.4422 22.8671 9.87933Z" fill="#3853A4"/>
</g>
<defs>
<clipPath id="clip0_57_2035">
<rect width="24" height="24" fill="white"/>
</clipPath>
</defs>
</svg>
