<svg width="49" height="47" viewBox="0 0 49 47" fill="none" xmlns="http://www.w3.org/2000/svg">
<g clip-path="url(#clip0_67_4471)">
<path d="M21.2746 40.4514C19.6339 40.4499 18.0365 39.9456 16.7156 39.012L3.1569 29.4749C2.17954 28.7865 1.38483 27.8871 0.837081 26.8495C0.289328 25.8118 0.00390625 24.6651 0.00390625 23.502C0.00390625 22.3389 0.289328 21.1922 0.837081 20.1545C1.38483 19.1169 2.17954 18.2175 3.1569 17.5291L16.7156 7.99199C17.8277 7.20816 19.1383 6.72444 20.5113 6.59114C21.8843 6.45783 23.2695 6.6798 24.5227 7.23397C25.776 7.78813 26.8515 8.65425 27.6375 9.74224C28.4236 10.8302 28.8913 12.1003 28.9921 13.4205L36.7137 7.98807C37.865 7.18035 39.2269 6.6941 40.6485 6.58319C42.0702 6.47228 43.4961 6.74103 44.7683 7.35968C46.0404 7.97833 47.1093 8.92272 47.8563 10.0882C48.6033 11.2537 48.9993 12.5948 49.0005 13.9629V33.0371C49.0001 34.4062 48.6043 35.7485 47.857 36.9149C47.1097 38.0814 46.0401 39.0265 44.7669 39.6453C43.4936 40.2642 42.0666 40.5326 40.644 40.4208C39.2213 40.309 37.8588 39.8214 36.7076 39.012L28.9921 33.5796C28.8474 35.4467 27.9723 37.1925 26.5422 38.4668C25.1122 39.7412 23.2328 40.4501 21.2808 40.4514H21.2746ZM26.9648 27.7712C27.3996 27.7711 27.823 27.9042 28.1734 28.1511L39.1229 35.8532C39.6656 36.2344 40.3078 36.464 40.9782 36.5165C41.6486 36.5691 42.3211 36.4425 42.9211 36.1509C43.5211 35.8593 44.0252 35.414 44.3775 34.8644C44.7299 34.3148 44.9166 33.6823 44.9171 33.0371V13.9629C44.9162 13.3177 44.729 12.6853 44.3764 12.1358C44.0239 11.5863 43.5196 11.1412 42.9195 10.8496C42.3194 10.5581 41.6469 10.4315 40.9764 10.484C40.306 10.5364 39.6637 10.7659 39.1209 11.1469L28.1755 18.849C27.8713 19.0633 27.5111 19.1926 27.1349 19.2224C26.7588 19.2522 26.3814 19.1814 26.0446 19.0179C25.7079 18.8543 25.425 18.6045 25.2274 18.296C25.0297 17.9876 24.9251 17.6326 24.9251 17.2706V13.9629C24.9249 13.3174 24.7382 12.6846 24.3858 12.1346C24.0334 11.5847 23.529 11.1392 22.9286 10.8475C22.3283 10.5558 21.6554 10.4294 20.9846 10.4822C20.3139 10.5351 19.6716 10.7651 19.1289 11.1469L5.57219 20.6839C5.11098 21.0082 4.73592 21.4322 4.47739 21.9215C4.21886 22.4107 4.08413 22.9515 4.08413 23.5C4.08413 24.0485 4.21886 24.5893 4.47739 25.0786C4.73592 25.5679 5.11098 25.9918 5.57219 26.3161L19.1289 35.8532C19.6716 36.2344 20.3137 36.464 20.9841 36.5165C21.6545 36.5691 22.327 36.4425 22.9271 36.1509C23.5271 35.8593 24.0312 35.414 24.3835 34.8644C24.7358 34.3148 24.9226 33.6823 24.9231 33.0371V29.7295C24.9231 29.2101 25.1382 28.712 25.5211 28.3447C25.904 27.9775 26.4233 27.7712 26.9648 27.7712Z" fill="white"/>
</g>
<defs>
<clipPath id="clip0_67_4471">
<rect width="49" height="47" fill="white"/>
</clipPath>
</defs>
</svg>
