<svg width="248" height="133" viewBox="0 0 248 133" fill="none" xmlns="http://www.w3.org/2000/svg">
<g id="tema">
<g id="Rectangle 4201" filter="url(#filter0_d_144_2813)">
<rect x="4" width="240" height="125" rx="12" fill="white"/>
</g>
<path id="Rectangle 4202" d="M4 12C4 5.37259 9.37258 0 16 0H64V125H16C9.37258 125 4 119.627 4 113V12Z" fill="#F1F1F1"/>
<path id="Rectangle 4203" d="M64 0H232C238.627 0 244 5.37258 244 12V26H64V0Z" fill="#F1F1F1"/>
<rect id="Rectangle 4204" x="78" y="31" width="47" height="20" rx="3" fill="#F79033"/>
<rect id="Rectangle 4207" x="78" y="58" width="99" height="36" rx="3" fill="#F79033"/>
<rect id="Rectangle 4208" x="182" y="58" width="46" height="36" rx="3" fill="#F1F1F1"/>
<rect id="Rectangle 4209" x="157" y="101" width="71" height="18" rx="3" fill="#F1F1F1"/>
<rect id="Rectangle 4210" x="78" y="101" width="35" height="18" rx="3" fill="#F1F1F1"/>
<rect id="Rectangle 4211" x="118" y="101" width="33" height="18" rx="3" fill="#F1F1F1"/>
<rect id="Rectangle 4205" x="130" y="31" width="47" height="20" rx="3" fill="#D9D9D9" fill-opacity="0.46"/>
<rect id="Rectangle 4206" x="182" y="31" width="47" height="20" rx="3" fill="#F1F1F1"/>
</g>
<defs>
<filter id="filter0_d_144_2813" x="0" y="0" width="248" height="133" filterUnits="userSpaceOnUse" color-interpolation-filters="sRGB">
<feFlood flood-opacity="0" result="BackgroundImageFix"/>
<feColorMatrix in="SourceAlpha" type="matrix" values="0 0 0 0 0 0 0 0 0 0 0 0 0 0 0 0 0 0 127 0" result="hardAlpha"/>
<feOffset dy="4"/>
<feGaussianBlur stdDeviation="2"/>
<feComposite in2="hardAlpha" operator="out"/>
<feColorMatrix type="matrix" values="0 0 0 0 0 0 0 0 0 0 0 0 0 0 0 0 0 0 0.25 0"/>
<feBlend mode="normal" in2="BackgroundImageFix" result="effect1_dropShadow_144_2813"/>
<feBlend mode="normal" in="SourceGraphic" in2="effect1_dropShadow_144_2813" result="shape"/>
</filter>
</defs>
</svg>
