<svg width="27" height="27" viewBox="0 0 27 27" fill="none" xmlns="http://www.w3.org/2000/svg">
<g id="BinanceSmartChainBadge">
<rect width="27" height="27" rx="8" fill="#F3BA2F"/>
<path id="binancedex" d="M15.3757 20.1918V22.4612L13.3972 23.625L11.477 22.4612V20.1918L13.3972 21.3556L15.3757 20.1918ZM4.78516 12.3362L6.70541 13.5V17.3987L10.0222 19.3771V21.6465L4.78516 18.5625V12.3362ZM22.0093 12.3362V18.5625L16.714 21.6465V19.3771L20.0308 17.3987V13.5L22.0093 12.3362ZM16.714 9.25215L18.6925 10.4159V12.6853L15.3757 14.6638V18.6207L13.4554 19.7845L11.5352 18.6207V14.6638L8.10197 12.6853V10.4159L10.0804 9.25215L13.3972 11.2306L16.714 9.25215ZM8.10197 14.3147L10.0222 15.4784V17.7478L8.10197 16.584V14.3147ZM18.6925 14.3147V16.584L16.7722 17.7478V15.4784L18.6925 14.3147ZM6.70541 7.27371L8.68386 8.4375L6.70541 9.60129V11.8707L4.78516 10.7069V8.4375L6.70541 7.27371ZM20.089 7.27371L22.0675 8.4375V10.7069L20.089 11.8707V9.60129L18.1688 8.4375L20.089 7.27371ZM13.3972 7.27371L15.3757 8.4375L13.3972 9.60129L11.477 8.4375L13.3972 7.27371ZM13.3972 3.375L18.6925 6.45905L16.7722 7.62284L13.4554 5.6444L10.0804 7.62284L8.16016 6.45905L13.3972 3.375Z" fill="white"/>
</g>
</svg>
