<svg width="30" height="30" viewBox="0 0 30 30" fill="none" xmlns="http://www.w3.org/2000/svg">
<g id="Group">
<path id="Vector" d="M15 29.1666C22.8241 29.1666 29.1667 22.824 29.1667 14.9999C29.1667 7.17588 22.8241 0.833252 15 0.833252C7.17601 0.833252 0.833374 7.17588 0.833374 14.9999C0.833374 22.824 7.17601 29.1666 15 29.1666Z" fill="#F00500"/>
<path id="Vector_2" d="M20.4082 15.9047C20.3994 15.9543 20.255 16.1013 20.1098 16.2093C19.6848 16.5201 18.9242 16.8096 18.1513 16.9486C17.7112 17.0283 17.2712 17.0407 17.1384 16.9761C17.0525 16.9327 17.0401 16.899 17.0711 16.7884C17.1357 16.5582 17.3455 16.3049 17.6714 16.0676C17.8378 15.9481 18.5125 15.5382 18.826 15.3655C19.343 15.0822 19.7619 14.9139 20.0452 14.8732C20.1346 14.8608 20.2426 14.8573 20.2754 14.8732C20.3321 14.8945 20.3932 15.0583 20.4171 15.2548C20.4303 15.3593 20.4241 15.8215 20.4082 15.9047ZM13.154 16.9238C13.1363 16.961 13.0433 17.0009 12.9388 17.0159C12.8335 17.0319 12.5138 17.0221 12.3323 17.0009C11.6789 16.9141 10.9865 16.714 10.4818 16.4679C10.1985 16.3297 9.99482 16.1907 9.8443 16.0402L9.75753 15.9508L9.74868 15.8339C9.73274 15.6302 9.73628 15.3106 9.76107 15.1964C9.77709 15.1012 9.80944 15.0096 9.8567 14.9255C9.8806 14.8945 9.8806 14.8945 9.99216 14.8945C10.1276 14.8945 10.241 14.9157 10.426 14.9742C10.805 15.0919 11.3681 15.3752 12.0552 15.7878C12.6219 16.1261 12.8344 16.2925 12.9973 16.5201C13.1079 16.6618 13.1814 16.8619 13.154 16.9238ZM17.5147 21.2101C17.5147 21.219 17.4775 21.3669 17.4314 21.5422C17.4018 21.6497 17.374 21.7577 17.3482 21.8662C17.3137 21.8689 17.2836 21.8724 17.249 21.8689H17.1516L17.0153 22.1894C16.9418 22.3647 16.8736 22.5276 16.8648 22.5524L16.8462 22.5958L16.7815 22.4905L16.7169 22.386V21.5333L16.6921 21.5395C16.639 21.5519 16.2671 21.6015 16.1042 21.6165C15.4305 21.6837 14.7512 21.6692 14.081 21.5732C14.0136 21.5615 13.9456 21.5532 13.8774 21.5484C13.8747 21.5519 13.8774 21.7485 13.8836 21.992L13.8924 22.4294L13.8411 22.5091C13.8127 22.5524 13.7853 22.5887 13.7853 22.5923C13.7764 22.6011 13.7454 22.5524 13.6746 22.4108C13.5984 22.2622 13.5405 22.1049 13.502 21.9424L13.4807 21.8538L13.3851 21.8592L13.2895 21.8689L13.2647 21.7547C13.2512 21.6854 13.2399 21.6157 13.231 21.5457L13.2222 21.4474L13.1425 21.3766L13.0407 21.2898C13.0247 21.2774 13.0185 21.2562 13.0185 21.2376V21.2004L13.4037 21.2039L13.7888 21.2066L13.8003 21.2464L13.8127 21.2872L13.9455 21.2934L14.4626 21.3084L14.8478 21.3173L14.9461 21.1641L15.0479 21.01H15.1772L15.1745 20.6895L15.171 20.369L15.0019 20.2955C14.4564 20.0556 14.1368 19.782 14.0164 19.449C13.9916 19.3809 13.9916 19.3561 13.9854 19.0488C13.9827 18.7434 13.9827 18.7159 14.004 18.6477C14.0248 18.5723 14.065 18.5037 14.1206 18.4487C14.1763 18.3937 14.2453 18.3543 14.321 18.3343C14.3741 18.3184 14.5122 18.3184 15.2391 18.3184L16.0945 18.3219L16.1901 18.368C16.2822 18.4058 16.362 18.4687 16.4203 18.5495C16.4947 18.6477 16.5168 18.7248 16.5168 18.9125C16.5168 19.1808 16.4982 19.4119 16.4708 19.5039C16.43 19.6306 16.3696 19.7501 16.2919 19.8581C16.1378 20.0556 15.8581 20.2521 15.6013 20.3415L15.5278 20.369L15.5313 20.6931L15.534 21.0162L15.6022 21.0224L15.6695 21.0286L15.7624 21.1668L15.851 21.3058H16.2645C16.492 21.3058 16.6921 21.3084 16.7107 21.3111C16.7417 21.3182 16.7479 21.3146 16.778 21.2624L16.8152 21.2066H17.1694C17.435 21.1942 17.5147 21.2004 17.5147 21.2101Z" fill="black"/>
<path id="Vector_3" d="M15.8881 22.0939C15.8297 22.1275 15.7898 22.1426 15.781 22.1373C15.7721 22.1337 15.7279 22.0965 15.6818 22.0629L15.5986 21.9956L15.5127 22.0877C15.325 22.2913 15.3179 22.3002 15.263 22.3028C15.1771 22.3117 15.1585 22.2966 15.0541 22.1399C14.9983 22.0602 14.9558 21.992 14.9558 21.992C14.9558 21.992 14.915 21.9858 14.869 21.9832L14.7831 21.9743L14.7433 22.0567L14.7025 22.1399L14.6317 22.1187C14.5762 22.1003 14.5218 22.0788 14.4688 22.054L14.3767 22.008V21.8318L15.1957 21.8353L16.0147 21.838L16.0174 21.9212C16.0209 22.0195 16.0236 22.0168 15.8881 22.0939Z" fill="black"/>
<path id="Vector_4" d="M23.5859 18.3378C23.5833 18.3245 23.5833 18.3024 23.5806 18.2696C22.7207 18.1882 21.8532 18.2777 21.0281 18.533C20.203 18.7883 19.4365 19.2043 18.7728 19.7571C18.7728 19.7571 18.1424 16.8618 15.1869 16.8618C12.2296 16.8618 11.1343 19.7571 11.1343 19.7571C9.47771 17.9739 7.26063 18.1032 6.45933 18.22L6.45667 18.2785C6.43188 18.7247 6.44428 18.9372 6.51865 19.217C6.74886 20.0954 7.46073 21.0622 8.57547 22.0105C10.4012 23.5626 12.8768 24.6827 14.7521 24.8129C16.7071 24.9457 19.5927 23.8026 21.5141 22.1336C21.8151 21.8662 22.0984 21.5829 22.3641 21.2809C22.5544 21.0596 22.8378 20.6771 22.8165 20.6771C22.8103 20.6771 22.8165 20.6709 22.8289 20.6647C22.8378 20.6585 22.8466 20.6496 22.8413 20.6434C22.8378 20.6399 22.844 20.631 22.8537 20.6284C22.8626 20.6248 22.8688 20.6195 22.8661 20.6124C22.8626 20.6062 22.8661 20.6 22.8785 20.5974C22.8874 20.5938 22.8909 20.585 22.8874 20.5788C22.8838 20.5726 22.8874 20.5664 22.8935 20.5664C22.8997 20.5664 22.9059 20.5575 22.9059 20.5513C22.9059 20.5451 22.9121 20.5354 22.9183 20.5354C22.9245 20.5354 22.9307 20.5292 22.9307 20.523C22.941 20.4978 22.9543 20.474 22.9706 20.4522C23.0166 20.3813 23.2008 20.052 23.2265 19.9971C23.4018 19.5995 23.5125 19.2454 23.5647 18.8912C23.5833 18.7221 23.5983 18.4113 23.5859 18.3369V18.3378ZM15.8881 22.0937C15.8297 22.1274 15.7898 22.1424 15.781 22.1371C15.7721 22.1336 15.7279 22.0964 15.6818 22.0628L15.5986 21.9955L15.5127 22.0875C15.325 22.2912 15.3179 22.3 15.263 22.3027C15.1771 22.3116 15.1585 22.2965 15.0541 22.1398C14.9983 22.0601 14.9558 21.9919 14.9558 21.9919C14.9558 21.9919 14.9151 21.9857 14.869 21.9831L14.7831 21.9742L14.7433 22.0566L14.7026 22.1398L14.6317 22.1185C14.5762 22.1002 14.5218 22.0786 14.4688 22.0539L14.3767 22.0079V21.8317L15.1957 21.8352L16.0147 21.8379L16.0174 21.9211C16.0209 22.0194 16.0236 22.0167 15.8881 22.0937ZM17.4288 21.5395C17.3991 21.6468 17.3711 21.7545 17.3446 21.8626C17.311 21.8653 17.28 21.8688 17.2464 21.8653H17.1481L17.0153 22.1894C16.9418 22.3647 16.8736 22.5276 16.8647 22.5524L16.8462 22.5958L16.7815 22.4904L16.7169 22.3859V21.5333L16.6921 21.5395C16.639 21.5519 16.2671 21.6014 16.1042 21.6165C15.4305 21.6837 14.7512 21.6691 14.081 21.5731C14.0136 21.5615 13.9456 21.5532 13.8773 21.5483C13.8747 21.5519 13.8773 21.7484 13.8835 21.9919L13.8924 22.4293L13.841 22.509C13.8127 22.5524 13.7853 22.5887 13.7853 22.5922C13.7764 22.6011 13.7454 22.5524 13.6746 22.4107C13.5984 22.2621 13.5405 22.1048 13.5019 21.9423L13.4807 21.8538L13.3851 21.86L13.2894 21.8688L13.2646 21.7546C13.2511 21.6854 13.2399 21.6157 13.231 21.5457L13.2221 21.4474L13.1425 21.3766C13.1092 21.3468 13.0752 21.3179 13.0406 21.2898C13.0247 21.2774 13.0185 21.2561 13.0185 21.2375V21.2004L13.4037 21.2039L13.7888 21.2066L13.8003 21.2464L13.8127 21.2871L13.9455 21.2933L14.4626 21.3084L14.8478 21.3172L14.946 21.1641L15.0479 21.01H15.1771L15.1745 20.6895L15.1709 20.3689L15.0018 20.2955C14.4564 20.0555 14.1368 19.7819 14.0164 19.449C13.9916 19.3808 13.9916 19.356 13.9854 19.0488C13.9827 18.7433 13.9827 18.7159 14.004 18.6477C14.0248 18.5723 14.065 18.5037 14.1206 18.4487C14.1762 18.3937 14.2453 18.3542 14.3209 18.3343C14.3741 18.3183 14.5122 18.3183 15.2391 18.3183L16.0944 18.3219L16.1901 18.3679C16.2822 18.4058 16.3619 18.4687 16.4203 18.5494C16.4946 18.6477 16.5168 18.7247 16.5168 18.9124C16.5168 19.1807 16.4982 19.4118 16.4707 19.5039C16.4299 19.6306 16.3696 19.7501 16.2919 19.8581C16.1378 20.0555 15.858 20.2521 15.6013 20.3415L15.5278 20.3689L15.5313 20.693L15.534 21.0162L15.6021 21.0224L15.6694 21.0286L15.7624 21.1667L15.8509 21.3057H16.2644C16.492 21.3057 16.6921 21.3084 16.7107 21.311C16.7417 21.3181 16.7479 21.3146 16.778 21.2623L16.8152 21.2066H17.1693C17.4438 21.2066 17.5235 21.2101 17.5235 21.219C17.5146 21.2163 17.4739 21.3668 17.4279 21.5395H17.4288Z" fill="white"/>
<path id="Vector_5" d="M23.562 18.0235C23.5558 17.8805 23.5464 17.7376 23.5337 17.595C23.4009 16.1969 23.0441 15.0547 22.3667 13.8443C22.3414 13.8028 22.3189 13.7596 22.2994 13.7151C22.2932 13.7062 22.2906 13.6974 22.287 13.6912C22.3827 13.4043 22.774 12.2063 23.0839 10.8366C23.5063 8.97719 23.7745 6.80261 22.9555 6.15006C22.9555 6.15006 21.5389 6.04558 19.6423 7.90495C19.1279 8.4185 18.6568 8.97631 18.238 9.57042L18.1052 9.52792C17.3431 9.27838 16.5528 9.12519 15.7527 9.07193C15.5127 9.05422 14.6167 9.05422 14.3245 9.07193C13.4408 9.13037 12.7626 9.26318 11.9932 9.53058C11.9649 9.54178 11.9362 9.55211 11.9073 9.56157C11.4733 8.96881 10.988 8.41536 10.457 7.90761C8.4825 6.03938 7.01359 6.1474 7.01359 6.1474C6.14589 6.8212 6.44161 9.09407 6.88964 11.0154C7.11212 11.9582 7.37743 12.8903 7.68474 13.8089C7.67475 13.8319 7.66352 13.8544 7.65109 13.8762C6.93391 15.3301 6.54521 16.7308 6.45312 18.2209C7.2562 18.1041 9.47062 17.9713 11.1299 19.7571C11.1299 19.7571 12.226 16.8627 15.1824 16.8627C18.138 16.8627 18.7693 19.758 18.7693 19.758C19.4333 19.2061 20.1996 18.7905 21.0245 18.5353C21.8494 18.28 22.7165 18.1901 23.5762 18.2705L23.5611 18.0235H23.562ZM8.26734 12.6472C8.26734 12.6472 7.1163 9.76787 7.41115 8.12277C7.46073 7.84652 7.55281 7.60303 7.69802 7.41886C7.69802 7.41886 9.00312 7.54813 11.1095 9.88829C11.1095 9.88829 10.7093 10.0822 10.1736 10.4948C10.1736 10.4948 10.1701 10.4975 10.1674 10.4975C9.39995 11.0833 8.75446 11.8136 8.26734 12.6472ZM13.1548 16.9238C13.1354 16.961 13.0433 17.0008 12.9388 17.0159C12.8334 17.0318 12.5138 17.0221 12.3323 17.0008C11.6789 16.9141 10.9865 16.714 10.4818 16.4678C10.1984 16.3297 9.99479 16.1907 9.84427 16.0402L9.7575 15.9507L9.74865 15.8339C9.73271 15.6302 9.73625 15.3106 9.76104 15.1964C9.77704 15.1012 9.80939 15.0095 9.85667 14.9254C9.88057 14.8944 9.88057 14.8944 9.99214 14.8944C10.1276 14.8944 10.2409 14.9157 10.426 14.9741C10.8049 15.0919 11.3681 15.3752 12.0552 15.7878C12.6218 16.126 12.8343 16.2925 12.9972 16.5201C13.1079 16.6617 13.1814 16.8618 13.154 16.9238H13.1548ZM20.4082 15.9047C20.3993 15.9543 20.255 16.1013 20.1098 16.2093C19.6848 16.5201 18.9242 16.8096 18.1512 16.9486C17.7112 17.0283 17.2711 17.0407 17.1383 16.976C17.0524 16.9327 17.0401 16.899 17.071 16.7883C17.1357 16.5581 17.3455 16.3049 17.6714 16.0676C17.8378 15.9472 18.5125 15.5381 18.8259 15.3655C19.343 15.0821 19.7618 14.9139 20.0452 14.8732C20.1346 14.8608 20.2426 14.8572 20.2762 14.8732C20.332 14.8944 20.3931 15.0582 20.4179 15.2548C20.4303 15.3593 20.4241 15.8215 20.4091 15.9047H20.4082ZM19.8973 10.4948L19.8911 10.4913C19.6094 10.2609 19.3064 10.0578 18.9862 9.88474C21.0218 7.54459 22.2799 7.41532 22.2799 7.41532C22.419 7.60303 22.5084 7.84297 22.558 8.12011C22.844 9.76433 21.7328 12.6464 21.7328 12.6464C21.2663 11.8169 20.6429 11.0861 19.8973 10.4948Z" fill="#FFA409"/>
<path id="Vector_6" d="M22.5615 8.12032C22.3207 8.09021 21.1847 8.08402 19.8973 10.495L19.8911 10.4915C19.6094 10.2611 19.3064 10.058 18.9862 9.88495C21.0218 7.5448 22.28 7.41553 22.28 7.41553C22.4216 7.60324 22.5119 7.84318 22.5606 8.12032H22.5615Z" fill="#FF9300"/>
<path id="Vector_7" d="M21.7355 12.6471C21.269 11.8166 20.6445 11.0854 19.8973 10.4946C21.1847 8.08364 22.3181 8.08984 22.5607 8.11994C22.8475 9.7677 21.7355 12.6471 21.7355 12.6471ZM22.6067 8.12879L22.5607 8.11994L22.6067 8.12879Z" fill="#FF8300"/>
<path id="Vector_8" d="M11.1095 9.88495C11.1095 9.88495 10.7093 10.0797 10.1736 10.4915C10.1736 10.4915 10.1701 10.495 10.1674 10.495C8.83397 8.08048 7.65991 8.09021 7.40845 8.12032C7.45715 7.84318 7.55011 7.60058 7.69444 7.41553C7.69798 7.41553 9.00308 7.5448 11.1095 9.88584V9.88495Z" fill="#FF9300"/>
<path id="Vector_9" d="M10.1701 10.4946C9.40104 11.0803 8.75455 11.8113 8.2673 12.6462C8.2673 12.6462 7.11626 9.7677 7.41111 8.11994C7.66079 8.08984 8.83663 8.08364 10.1701 10.4946Z" fill="#FF8300"/>
<path id="Vector_10" d="M7.41201 8.12012L7.36243 8.12897L7.41112 8.12012H7.41201Z" fill="#FF8300"/>
<path id="Vector_11" d="M18.6196 14.2454C18.6196 14.2454 17.6342 14.3065 17.7572 13.5371C17.8812 12.7667 18.6506 12.6747 18.8658 12.7048C19.0818 12.7358 19.9433 13.0439 19.7902 13.6911C19.6361 14.3375 19.4201 14.2135 19.297 14.2454C19.1739 14.2755 18.6196 14.2454 18.6196 14.2454ZM11.3521 14.2454C11.3521 14.2454 10.3676 14.3065 10.4906 13.5371C10.6146 12.7667 11.3831 12.6747 11.5992 12.7048C11.8143 12.7358 12.6767 13.0439 12.5227 13.6911C12.3686 14.3375 12.1534 14.2135 12.0304 14.2454C11.9064 14.2755 11.353 14.2454 11.353 14.2454H11.3521Z" fill="white"/>
</g>
</svg>
