<svg width="26" height="26" viewBox="0 0 26 26" fill="none" xmlns="http://www.w3.org/2000/svg">
<g id="PolygonBadge">
<rect width="26" height="26" rx="8" fill="#8247E5"/>
<path id="Vector" d="M17.4133 10.0798C17.0935 9.89131 16.6777 9.89131 16.326 10.0798L13.8315 11.5248L12.1365 12.4672L9.6421 13.9122C9.3223 14.1007 8.90656 14.1007 8.55477 13.9122L6.572 12.7813C6.25219 12.5929 6.02833 12.2473 6.02833 11.8704V9.64C6.02833 9.26304 6.22021 8.91749 6.572 8.72901L8.52279 7.62953C8.84259 7.44105 9.25834 7.44105 9.61012 7.62953L11.5609 8.72901C11.8807 8.91749 12.1046 9.26304 12.1046 9.64V11.085L13.7995 10.1112V8.66618C13.7995 8.28921 13.6077 7.94367 13.2559 7.75518L9.6421 5.68189C9.3223 5.49341 8.90656 5.49341 8.55477 5.68189L4.87704 7.75518C4.52526 7.94367 4.33337 8.28921 4.33337 8.66618V12.8442C4.33337 13.2211 4.52526 13.5667 4.87704 13.7552L8.55477 15.8285C8.87457 16.017 9.29032 16.017 9.6421 15.8285L12.1365 14.4149L13.8315 13.4411L16.326 12.0274C16.6458 11.839 17.0615 11.839 17.4133 12.0274L19.3641 13.1269C19.6839 13.3154 19.9078 13.661 19.9078 14.0379V16.2682C19.9078 16.6453 19.7159 16.9908 19.3641 17.1793L17.4133 18.3102C17.0935 18.4986 16.6777 18.4986 16.326 18.3102L14.3752 17.2107C14.0554 17.0222 13.8315 16.6766 13.8315 16.2997V14.8547L12.1365 15.8285V17.2735C12.1365 17.6504 12.3285 17.996 12.6802 18.1845L16.358 20.2578C16.6777 20.4463 17.0935 20.4463 17.4453 20.2578L21.1231 18.1845C21.4428 17.996 21.6667 17.6504 21.6667 17.2735V13.0955C21.6667 12.7185 21.4748 12.373 21.1231 12.1845L17.4133 10.0798Z" fill="white"/>
</g>
</svg>
