<svg width="17" height="16" viewBox="0 0 17 16" fill="none" xmlns="http://www.w3.org/2000/svg">
<g clip-path="url(#clip0_73_2794)">
<path d="M16.4834 6.27935C15.3847 4.59535 12.8857 1.77002 8.49973 1.77002C4.11373 1.77002 1.61473 4.59535 0.516106 6.27935C0.17648 6.79636 -0.00341797 7.39218 -0.00341797 8.00002C-0.00341797 8.60786 0.17648 9.20368 0.516106 9.72069C1.61473 11.4047 4.11373 14.23 8.49973 14.23C12.8857 14.23 15.3847 11.4047 16.4834 9.72069C16.823 9.20368 17.0029 8.60786 17.0029 8.00002C17.0029 7.39218 16.823 6.79636 16.4834 6.27935ZM15.2756 9.02269C14.3321 10.4667 12.1965 12.8967 8.49973 12.8967C4.80294 12.8967 2.66731 10.4667 1.72381 9.02269C1.52204 8.71538 1.41516 8.36127 1.41516 8.00002C1.41516 7.63877 1.52204 7.28466 1.72381 6.97735C2.66731 5.53335 4.80294 3.10335 8.49973 3.10335C12.1965 3.10335 14.3321 5.53069 15.2756 6.97735C15.4774 7.28466 15.5843 7.63877 15.5843 8.00002C15.5843 8.36127 15.4774 8.71538 15.2756 9.02269Z" fill="#F79033"/>
<path d="M8.49968 4.6665C7.7992 4.6665 7.11446 4.862 6.53203 5.22827C5.94961 5.59454 5.49566 6.11514 5.2276 6.72423C4.95954 7.33331 4.88941 8.00354 5.02606 8.65014C5.16272 9.29674 5.50003 9.89069 5.99534 10.3569C6.49065 10.823 7.12172 11.1405 7.80873 11.2691C8.49575 11.3977 9.20786 11.3317 9.85501 11.0794C10.5022 10.8271 11.0553 10.3999 11.4445 9.85174C11.8336 9.30357 12.0413 8.65911 12.0413 7.99984C12.0402 7.11611 11.6667 6.26888 11.0028 5.64398C10.3388 5.01909 9.43864 4.66756 8.49968 4.6665ZM8.49968 9.99984C8.07939 9.99984 7.66854 9.88254 7.31909 9.66278C6.96963 9.44301 6.69727 9.13066 6.53643 8.7652C6.3756 8.39975 6.33351 7.99762 6.41551 7.60966C6.4975 7.22169 6.69989 6.86533 6.99707 6.58562C7.29426 6.30592 7.6729 6.11544 8.08511 6.03827C8.49732 5.9611 8.92459 6.0007 9.31288 6.15208C9.70117 6.30345 10.0331 6.5598 10.2665 6.8887C10.5 7.2176 10.6247 7.60427 10.6247 7.99984C10.6247 8.53027 10.4008 9.03898 10.0023 9.41405C9.60376 9.78912 9.06326 9.99984 8.49968 9.99984Z" fill="#F79033"/>
</g>
<defs>
<clipPath id="clip0_73_2794">
<rect width="17" height="16" fill="white"/>
</clipPath>
</defs>
</svg>
