<svg width="124" height="117" viewBox="0 0 124 117" fill="none" xmlns="http://www.w3.org/2000/svg">
<g id="logos:metamask-icon" clip-path="url(#clip0_72_2696)">
<path id="Vector" d="M120.819 0L67.7695 39.4631L77.6345 16.2064L120.819 0Z" fill="#E17726"/>
<path id="Vector_2" d="M3.04282 0.0466309L46.1115 16.2093L55.4785 39.7709L3.04282 0.0466309ZM99.4701 83.9271L122.917 84.3758L114.723 112.362L86.1121 104.443L99.4701 83.9271ZM24.2669 83.9271L37.5751 104.443L9.01288 112.363L0.868164 84.3758L24.2669 83.9271Z" fill="#E27625"/>
<path id="Vector_3" d="M54.205 33.7693L55.1631 64.8832L26.4907 63.5718L34.6465 51.2016L34.7499 51.0827L54.205 33.7693ZM69.2354 33.4221L88.9875 51.0836L89.0898 51.2021L97.2457 63.5723L68.5795 64.8832L69.2354 33.4221ZM38.4149 84.0174L54.0707 96.2813L35.8843 105.109L38.4149 84.0174ZM85.3253 84.0154L87.8033 105.109L69.6676 96.2803L85.3253 84.0154Z" fill="#E27625"/>
<path id="Vector_4" d="M70.0679 95.1252L88.4711 104.084L71.3525 112.263L71.5302 106.858L70.0679 95.1252ZM53.664 95.1291L52.2591 106.769L52.3745 112.257L35.2158 104.084L53.664 95.1291Z" fill="#D5BFB2"/>
<path id="Vector_5" d="M48.3495 68.9443L53.1586 79.1054L36.7856 74.2832L48.3495 68.9443ZM75.3867 68.9453L87.0052 74.2832L70.5786 79.104L75.3867 68.9453Z" fill="#233447"/>
<path id="Vector_6" d="M39.6662 83.9135L37.0197 105.782L22.8345 84.3917L39.6662 83.9135ZM84.0722 83.9139L100.904 84.3917L86.666 105.783L84.0722 83.9139ZM97.6601 62.3352L85.4104 74.8866L75.9656 70.5474L71.4439 80.1045L68.4796 63.6699L97.6601 62.3352ZM26.0711 62.3352L55.2573 63.6699L52.2926 80.1045L47.7699 70.5489L38.3753 74.887L26.0711 62.3352Z" fill="#CC6228"/>
<path id="Vector_7" d="M25.2456 59.7596L39.1049 73.8986L39.5849 87.857L25.2456 59.7596ZM98.5055 59.7344L84.1401 87.8818L84.681 73.8986L98.5055 59.7344ZM54.5796 60.6209L55.1374 64.1507L56.5157 72.9441L55.6295 99.9515L51.44 78.2557L51.4386 78.0314L54.5796 60.6209ZM69.1503 60.5719L72.2995 78.0314L72.298 78.2557L68.098 100.006L67.9318 94.5655L67.2765 72.7839L69.1503 60.5719Z" fill="#E27525"/>
<path id="Vector_8" d="M85.9131 73.3369L85.4442 85.4644L70.8238 96.9165L67.8682 94.8171L71.1812 77.661L85.9131 73.3369ZM37.875 73.3369L52.5558 77.661L55.8687 94.8171L52.9131 96.9165L38.2923 85.4634L37.875 73.3369Z" fill="#F5841F"/>
<path id="Vector_9" d="M32.418 101.406L51.123 110.316L51.0438 106.511L52.609 105.13H71.1219L72.7436 106.506L72.6238 110.309L91.2106 101.428L82.1662 108.942L71.2301 116.494H52.4588L41.53 108.911L32.418 101.406Z" fill="#C0AC9D"/>
<path id="Vector_10" d="M68.728 93.9392L71.3726 95.8177L72.9224 108.249L70.6796 106.345H53.064L50.8638 108.287L52.3628 95.8187L55.0083 93.9392H68.728Z" fill="#161616"/>
<path id="Vector_11" d="M117.316 1.09253L123.684 20.2985L119.707 39.7181L122.539 41.9141L118.707 44.8535L121.587 47.0898L117.774 50.5813L120.115 52.2859L113.901 59.5815L88.417 52.1213L88.1963 52.0024L69.8316 36.4277L117.316 1.09253ZM6.42073 1.09253L53.9059 36.4277L35.5408 52.0024L35.3201 52.1213L9.83557 59.5815L3.62211 52.2859L5.96145 50.5827L2.15012 47.0898L5.02456 44.8559L1.13499 41.9083L4.07366 39.7108L0.0527344 20.2995L6.42073 1.09253Z" fill="#763E1A"/>
<path id="Vector_12" d="M87.1704 50.4898L114.173 58.3937L122.945 85.5764H99.8011L83.8546 85.7783L95.4518 63.0518L87.1704 50.4898ZM36.5665 50.4898L28.2836 63.0518L39.8823 85.7783L23.943 85.5764H0.840332L9.5636 58.3942L36.5665 50.4898ZM78.9567 16.0767L71.404 36.5848L69.8012 64.2889L69.1878 72.9726L69.1391 95.1553H54.5974L54.55 73.0143L53.9348 64.2817L52.3314 36.5848L44.7798 16.0767H78.9567Z" fill="#F5841F"/>
</g>
<defs>
<clipPath id="clip0_72_2696">
<rect width="123.632" height="116.526" fill="white" transform="translate(0.0527344)"/>
</clipPath>
</defs>
</svg>
