<svg width="24" height="20" viewBox="0 0 24 20" fill="none" xmlns="http://www.w3.org/2000/svg">
<path d="M11.0561 0.697479C11.3686 -0.195484 12.6314 -0.195486 12.9439 0.697477L14.9089 6.31306C15.0492 6.71418 15.4278 6.98278 15.8527 6.98278H22.0445C23.0311 6.98278 23.4216 8.26 22.6038 8.81176L17.7251 12.1031C17.3484 12.3573 17.1904 12.8335 17.3405 13.2624L19.2335 18.6723C19.5514 19.5807 18.5282 20.3698 17.7303 19.8315L12.5593 16.3429C12.2213 16.1148 11.7787 16.1148 11.4407 16.3429L6.26965 19.8315C5.47181 20.3698 4.44863 19.5807 4.7665 18.6723L6.65948 13.2624C6.80957 12.8335 6.65158 12.3573 6.27487 12.1031L1.39623 8.81176C0.578385 8.26 0.96894 6.98278 1.95551 6.98278H8.14727C8.57224 6.98278 8.95079 6.71418 9.09115 6.31306L11.0561 0.697479Z" fill="#FF7D00"/>
</svg>
