<svg width="24" height="20" viewBox="0 0 24 20" fill="none" xmlns="http://www.w3.org/2000/svg">
<path d="M11.5281 0.862617C11.6843 0.416134 12.3157 0.416136 12.4719 0.862616L14.4369 6.4782C14.6474 7.07988 15.2153 7.48278 15.8527 7.48278H22.0445C22.5378 7.48278 22.7331 8.12139 22.3241 8.39727L17.4455 11.6886C16.8804 12.0698 16.6434 12.7841 16.8686 13.4275L18.7616 18.8374C18.9205 19.2916 18.4089 19.6862 18.01 19.417L12.8389 15.9284C12.3319 15.5863 11.6681 15.5863 11.1611 15.9284L5.99002 19.417C5.5911 19.6862 5.0795 19.2916 5.23844 18.8374L7.13143 13.4275C7.35656 12.7841 7.11958 12.0698 6.55451 11.6886L1.67587 8.39727C1.26695 8.12139 1.46222 7.48278 1.95551 7.48278H8.14727C8.78472 7.48278 9.35255 7.07988 9.56309 6.47819L11.5281 0.862617Z" stroke="#FF7D00"/>
</svg>
