<svg width="26" height="26" viewBox="0 0 26 26" fill="none" xmlns="http://www.w3.org/2000/svg">
<g id="StellarBadge">
<rect width="26" height="26" rx="8" fill="black"/>
<path id="Layer 1" d="M19.2203 7.40155L17.1332 8.50126L7.05482 13.8102C7.02074 13.5414 7.00359 13.2705 7.00348 12.9994C7.00486 11.9177 7.27948 10.8551 7.80013 9.91689C8.32078 8.97869 9.06941 8.19743 9.97185 7.65052C10.8743 7.1036 11.8992 6.80999 12.9452 6.79878C13.9911 6.78757 15.0217 7.05915 15.9349 7.58661L17.1295 6.95712L17.3077 6.86308C16.2134 6.04163 14.9207 5.54909 13.5726 5.4399C12.2245 5.33072 10.8735 5.60913 9.66883 6.24437C8.46417 6.87962 7.4528 7.84696 6.7465 9.03947C6.04019 10.232 5.66645 11.6033 5.66659 13.0017C5.66659 13.1948 5.67368 13.3872 5.68786 13.5789C5.70772 13.8502 5.64952 14.1216 5.5206 14.3589C5.39168 14.5961 5.19778 14.7886 4.96332 14.9122L4.33337 15.2443V16.7938L6.188 15.8162L6.78861 15.4992L7.38042 15.1875L18.0051 9.58883L19.199 8.9601L21.6667 7.65941V6.11073L19.2203 7.40155ZM21.6667 9.20962L7.98396 16.4146L6.79008 17.0448L4.33337 18.3394V19.8874L6.77321 18.6019L8.86031 17.5021L18.9489 12.1856C18.983 12.4562 19.0002 12.7288 19.0003 13.0017C18.9996 14.0847 18.7251 15.1487 18.2039 16.088C17.6828 17.0274 16.9331 17.8094 16.0294 18.3565C15.1256 18.9036 14.0992 19.1967 13.0521 19.2067C12.0049 19.2168 10.9735 18.9434 10.0601 18.4138L9.98673 18.454L8.69164 19.1365C9.78574 19.958 11.0781 20.4507 12.426 20.5601C13.7739 20.6696 15.1248 20.3916 16.3294 19.7567C17.5341 19.1219 18.5456 18.1551 19.2522 16.963C19.9588 15.7709 20.333 14.4 20.3335 13.0017C20.3335 12.8068 20.3262 12.6119 20.3122 12.4192C20.2924 12.148 20.3505 11.8767 20.4793 11.6395C20.6081 11.4023 20.8018 11.2097 21.036 11.0859L21.6667 10.7538V9.20962Z" fill="white"/>
</g>
</svg>
