<svg width="12" height="18" viewBox="0 0 12 18" fill="none" xmlns="http://www.w3.org/2000/svg">
<g id="Suterusu (Suter)">
<g id="Suterusu (Suter)_2">
<path id="Suterusu (Suter)_3" fill-rule="evenodd" clip-rule="evenodd" d="M1.06775 7.09941V7.09941C0.887425 6.92035 0.786011 6.67672 0.786011 6.42259C0.786011 6.16845 0.887425 5.92483 1.06775 5.74576L6.44811 0.353977C6.82567 -0.0161043 7.42992 -0.0161043 7.80748 0.353977C8.17756 0.731535 8.17756 1.33579 7.80748 1.71335L2.42141 7.09941C2.24234 7.27974 1.99872 7.38116 1.74458 7.38116C1.49045 7.38116 1.24682 7.27974 1.06775 7.09941" fill="#242328"/>
</g>
<g id="Suterusu (Suter)_4">
<path id="Suterusu (Suter)_5" fill-rule="evenodd" clip-rule="evenodd" d="M10.7888 10.7605V10.7605C10.9695 10.9405 11.071 11.1851 11.071 11.4401C11.071 11.6952 10.9695 11.9398 10.7888 12.1198L5.40844 17.5059C5.16896 17.7598 4.81051 17.8636 4.47239 17.7771C4.13428 17.6905 3.86983 17.4272 3.78184 17.0894C3.69385 16.7517 3.79618 16.3928 4.04907 16.1522L9.43514 10.7605C9.80948 10.388 10.4145 10.388 10.7888 10.7605M0.719211 11.9028V11.9028C0.34913 11.5252 0.34913 10.921 0.719211 10.5434L4.14619 7.11646C4.32526 6.93613 4.56888 6.83472 4.82302 6.83472C5.07715 6.83472 5.32078 6.93613 5.49985 7.11646C5.86993 7.49402 5.86993 8.09827 5.49985 8.47583L2.07287 11.9028C1.69853 12.2753 1.09355 12.2753 0.719211 11.9028" fill="#242328"/>
</g>
<path id="Suterusu (Suter)_6" fill-rule="evenodd" clip-rule="evenodd" d="M11.1372 5.95152V5.95152C11.5097 6.32586 11.5097 6.93083 11.1372 7.30517L7.71026 10.7322C7.46972 10.985 7.11083 11.0874 6.77308 10.9994C6.43533 10.9114 6.172 10.6469 6.08543 10.3088C5.99886 9.97072 6.10271 9.61226 6.35661 9.37278L9.78359 5.9458C9.96265 5.76548 10.2063 5.66406 10.4604 5.66406C10.7145 5.66406 10.9582 5.76548 11.1372 5.9458" fill="white"/>
</g>
</svg>
