<svg width="20" height="18" viewBox="0 0 20 18" fill="none" xmlns="http://www.w3.org/2000/svg">
<g id="Group 16">
<path id="Vector" d="M10.0638 0.497977C12.0748 0.497977 14.0054 0.497977 16.0164 0.497977C16.1773 0.497977 16.2577 0.579449 16.2577 0.660922C17.3839 3.18658 18.5101 5.63076 19.7167 8.07494C19.7971 8.15642 19.7167 8.23789 19.6362 8.31936C18.2687 9.7044 16.9013 11.0894 15.4533 12.4745C13.6836 14.1854 11.8335 15.9778 10.0638 17.6887C9.9029 17.7702 9.9029 17.7702 9.82246 17.6887C8.05276 15.9778 6.28306 14.2669 4.51336 12.4745C3.14587 11.0894 1.69794 9.7044 0.330441 8.31936C0.25 8.23789 0.25 8.15642 0.25 8.07494C0.813086 6.77138 1.45661 5.54929 2.0197 4.24572C2.58278 3.02363 3.14587 1.88301 3.70896 0.660922C3.7894 0.497976 3.86984 0.416504 4.11116 0.416504C6.12218 0.497977 8.05276 0.416504 10.0638 0.497977ZM10.1442 2.69774C8.69629 2.69774 7.16791 2.69774 5.71998 2.69774C5.63954 2.69774 5.63954 2.69774 5.5591 2.69774C5.47865 2.69774 5.47865 2.69774 5.47865 2.77921C5.47865 3.51247 5.47865 4.24572 5.39821 5.06045C5.39821 5.14192 5.39821 5.14192 5.47865 5.14192C5.71998 5.14192 5.9613 5.14192 6.20262 5.14192C7.00703 5.14192 7.81144 5.14192 8.61585 5.14192C8.69629 5.14192 8.69629 5.14192 8.77673 5.14192C8.85717 5.14192 8.85717 5.2234 8.85717 5.30487C8.85717 5.63076 8.85717 6.03812 8.85717 6.36402C8.85717 6.44549 8.85717 6.44549 8.77673 6.52696C8.21364 6.60843 7.65056 6.60843 7.08747 6.68991C6.3635 6.77138 5.63954 6.93433 4.99601 7.17874C4.67425 7.26022 4.43292 7.42316 4.1916 7.58611C3.95028 7.83053 3.95028 8.15642 4.1916 8.31936C4.35248 8.48231 4.51336 8.56378 4.67425 8.64525C5.23733 8.88967 5.80042 8.97114 6.3635 9.13409C7.16791 9.29704 7.97232 9.37851 8.77673 9.45998C8.93761 9.45998 8.93761 9.45998 8.93761 9.62293C8.93761 11.0894 8.93761 12.6374 8.93761 14.1039C8.93761 14.2669 8.93761 14.2669 9.09849 14.2669C9.82246 14.2669 10.6269 14.2669 11.3508 14.2669C11.5922 14.2669 11.5922 14.2669 11.5922 14.0225C11.5922 12.8004 11.5922 11.6597 11.5922 10.4377C11.5922 10.1118 11.5922 9.78587 11.5922 9.45998C11.5922 9.29704 11.6726 9.29704 11.753 9.29704C12.5574 9.29704 13.2814 9.21556 14.0858 9.05262C14.7293 8.97115 15.2924 8.8082 15.8555 8.56378C16.0164 8.48231 16.1773 8.31936 16.3382 8.23789C16.499 8.07494 16.499 7.912 16.3382 7.74905C16.1773 7.66758 16.0968 7.50464 15.936 7.42316C14.9707 6.85285 13.8445 6.60843 12.7183 6.52696C12.3966 6.52696 12.0748 6.52696 11.753 6.44549C11.6726 6.44549 11.6726 6.44549 11.6726 6.28254C11.6726 5.95665 11.6726 5.54929 11.6726 5.2234C11.6726 5.14192 11.6726 5.06045 11.8335 5.06045C12.0748 5.06045 12.3161 5.06045 12.5574 5.06045C13.3619 5.06045 14.0858 5.06045 14.8902 5.06045C15.0511 5.06045 15.0511 4.97898 15.0511 4.89751C15.0511 4.81603 15.0511 4.81603 15.0511 4.73456C15.0511 4.08278 15.0511 3.431 15.0511 2.69774C15.0511 2.5348 15.0511 2.5348 14.8902 2.5348C13.1205 2.69774 11.5922 2.69774 10.1442 2.69774Z" fill="white"/>
<path id="Vector_2" d="M9.74169 8.88968C9.17861 8.88968 8.69596 8.88967 8.13288 8.8082C7.24803 8.72673 6.28274 8.64526 5.39789 8.31936C5.23701 8.23789 5.07612 8.15642 4.8348 8.07495C4.59348 7.912 4.59348 7.74905 4.8348 7.66758C5.15656 7.50464 5.47833 7.42316 5.80009 7.34169C6.44362 7.17874 7.08715 7.09727 7.81111 7.0158C8.05244 7.0158 8.3742 6.93433 8.61552 6.93433C8.69596 6.93433 8.77641 6.93433 8.77641 7.09727C8.77641 7.58611 8.77641 7.99347 8.77641 8.48231C8.77641 8.64526 8.85685 8.64526 8.93729 8.64526C9.58081 8.64526 10.2243 8.64526 10.7874 8.64526C10.9483 8.64526 11.1092 8.64526 11.2701 8.64526C11.431 8.64526 11.431 8.64526 11.431 8.48231C11.431 8.07495 11.431 7.66758 11.431 7.26022C11.431 7.0158 11.431 7.0158 11.6723 7.0158C12.718 7.09727 13.7637 7.17874 14.8095 7.50464C14.9704 7.58611 15.2117 7.66758 15.3726 7.74906C15.5334 7.83053 15.5334 7.99347 15.3726 8.07495C15.0508 8.31936 14.729 8.40084 14.3268 8.48231C13.5224 8.64526 12.718 8.8082 11.9136 8.8082C11.2701 8.8082 10.4657 8.88968 9.74169 8.88968Z" fill="white"/>
</g>
</svg>
