<svg width="18" height="17" viewBox="0 0 18 17" fill="none" xmlns="http://www.w3.org/2000/svg">
<g id="Group">
<g id="Group-5-Copy-2">
<g id="Group-2-Copy-2">
<path id="Combined-Shape" d="M17.1967 9.82704C17.1527 9.47722 17.0354 9.24983 16.9622 9.10991C16.5078 8.25285 15.438 6.45128 15.2475 6.11895C15.1888 6.03149 15.1155 5.89156 15.0569 5.69916C14.9836 5.48927 14.9543 5.27938 14.9397 5.22691C14.925 5.13945 14.925 5.13945 14.9104 5.06949C14.9104 5.03451 14.8664 4.78963 14.7638 4.57974C14.6759 4.38734 14.5733 4.2649 14.5 4.15996C13.8845 3.46032 13.0349 2.94944 12.8439 2.35838C12.8188 2.28069 12.7828 2.19712 12.7379 2.11081C12.733 2.1013 12.6831 0.701891 12.6779 0.692324C12.3734 0.127883 11.745 0.851983 11.2318 0.941614C9.63433 1.22147 8.62117 2.32109 7.22888 3.40553C7.13529 3.48286 6.74349 3.96688 6.0803 4.57974C5.63818 4.98831 5.02387 5.97632 4.23738 7.54377L3.91966 8.94437L3.38892 10.7211C3.40294 10.825 3.42952 11.1462 3.46865 11.6849C3.5704 13.0855 4.24755 14.6263 4.42342 15.361C4.8924 15.1861 8.787 16.0672 10.575 16.3996C10.8594 16.4499 11.1912 16.4776 11.5696 16.4518C11.6768 16.4445 10.2299 13.6167 7.22888 7.96841C10.6105 13.5511 12.3403 16.3324 12.4181 16.3123C12.9017 16.1876 13.4406 15.9736 14.0337 15.63C13.7602 15.5483 12.3804 13.6776 9.89456 10.0178C9.61842 9.52731 9.48034 9.05251 9.48034 8.59338C9.48034 8.07675 9.67853 7.50235 10.0749 6.87018C10.0916 7.25858 10.1328 7.57644 10.1985 7.82378C10.297 8.19478 11.5265 9.70494 11.906 9.84453C12.5196 10.0703 12.2645 9.68545 13.2025 10.0178C13.3784 10.0702 13.5836 10.1577 13.8034 10.3676C14.0818 10.63 14.3705 10.961 14.3705 10.961C14.4144 11.0485 14.4291 11.0835 14.4731 11.1884C14.5317 11.3109 14.9104 11.821 15.0716 11.9609C15.2328 12.1009 15.3794 12.1708 15.4819 12.2058C15.5699 12.2408 15.6432 12.2583 15.6578 12.2583C15.863 12.3108 16.0389 12.2933 16.1268 12.2933C16.227 12.2762 16.6539 11.8322 16.7361 11.7697C16.8 11.721 12.1134 7.98469 12.126 7.96841C12.1444 7.94445 12.6614 7.53435 13.2025 8.33721C14.9644 10.9513 16.715 11.8047 16.7361 11.7697C16.8028 11.6588 16.8494 11.5595 16.8742 11.5062C17.0061 11.2263 17.0501 10.9814 17.1234 10.5791C17.1967 10.2993 17.226 10.0894 17.1967 9.82704ZM13.5609 2.97373C13.6003 2.99669 13.6006 2.92452 13.576 2.83539C13.5514 2.74626 13.4887 1.39487 13.4835 1.3853C13.3434 1.12556 13.1282 1.07189 12.9002 1.23727C12.8775 1.2537 12.8845 1.54151 12.9212 2.10072C13.1491 2.56682 13.3623 2.85782 13.5609 2.97373ZM13.9195 6.04676L13.0825 5.6108C12.917 5.46033 12.8136 5.20954 12.8136 4.93367V4.58256C12.8136 4.43209 13.0974 4.29468 13.1628 4.42007L14.0545 5.91175C14.1993 6.13746 14.1335 6.13746 13.9195 6.04676ZM16.9613 10.1569C16.9319 10.3589 16.9485 10.2684 16.9356 10.3322C16.9098 10.4437 16.8629 10.6873 16.8371 10.7829C16.7973 10.8726 16.7279 10.8726 16.7087 10.7954C16.7087 10.7636 16.6215 10.4726 16.5699 10.3451C16.5313 10.2495 16.6588 9.91839 16.749 9.85465C16.846 9.79616 16.9908 9.95496 16.9613 10.1569Z" fill="white"/>
<g id="Group-8">
<path id="Path" d="M7.44741 7.80101C7.44741 7.80101 6.66918 7.15049 4.74386 8.10131C3.49984 8.71575 3.0967 10.0211 2.27785 11.1315C1.45903 12.2418 1.01641 12.194 1.01641 12.194C1.01641 12.194 2.8154 12.8759 4.46858 11.921C6.12169 10.966 6.83854 7.80101 6.83854 7.80101L7.44741 7.80101Z" fill="white"/>
<path id="Path-34" fill-rule="evenodd" clip-rule="evenodd" d="M1.01636 12.1939C1.40647 12.2516 1.93613 12.2323 2.60533 12.136C3.60914 11.9915 4.01444 11.7485 4.19604 11.7127C4.31711 11.6889 4.50279 11.6889 4.75307 11.7127C4.5144 11.8965 4.26475 12.0376 4.00411 12.136C3.61315 12.2835 3.40675 12.3598 2.97446 12.4082C2.54216 12.4567 2.28133 12.4397 1.75778 12.3801C1.40875 12.3404 1.16161 12.2783 1.01636 12.1939Z" fill="#CDCDCD"/>
</g>
<g id="Group-9">
<path id="Path-Copy-20" d="M5.97179 6.43531C4.55307 6.73667 3.69204 7.80517 2.50211 8.6231C1.31226 9.44093 0.904109 9.31438 0.904109 9.31438C0.904109 9.31438 2.38604 10.2568 4.32158 9.73492C6.25707 9.21292 8.16744 5.96901 5.97179 6.43531Z" fill="white"/>
<path id="Path-35" fill-rule="evenodd" clip-rule="evenodd" d="M0.904053 9.31421C1.26941 9.44654 1.59361 9.52819 1.87665 9.55915C2.30121 9.60559 2.46022 9.50196 2.77467 9.62025C2.98431 9.6991 3.08511 9.79184 3.07707 9.89845C2.92881 9.90513 2.73524 9.89163 2.49635 9.85794C2.13802 9.8074 2.12799 9.79878 1.84268 9.72434C1.55738 9.6499 1.58887 9.65969 1.34345 9.55713C1.17984 9.48876 1.03337 9.40778 0.904053 9.31421Z" fill="#CDCDCD"/>
</g>
<g id="Group-10">
<path id="Path-Copy-21" d="M7.49763 4.66935C6.01413 4.68999 4.76192 5.65741 3.2931 6.28413C1.8244 6.91073 1.48234 6.68674 1.48234 6.68674C1.48234 6.68674 2.53241 8.02082 4.60034 7.87322C6.66825 7.72551 9.7935 4.63751 7.49763 4.66935Z" fill="white"/>
<path id="Path-36" fill-rule="evenodd" clip-rule="evenodd" d="M1.4823 6.68677C1.75313 6.79123 2.01107 6.89123 2.25613 6.98679C2.62372 7.13011 2.75182 7.13019 2.94882 7.3172C3.08015 7.44187 3.27836 7.60886 3.54346 7.81819C3.17437 7.75239 2.9018 7.67852 2.72576 7.59656C2.46171 7.47362 2.43542 7.45482 2.21779 7.3172C2.00015 7.17958 1.90483 7.09521 1.73605 6.94838C1.62353 6.85049 1.53895 6.76329 1.4823 6.68677Z" fill="#CDCDCD"/>
</g>
</g>
<path id="Path-25" fill-rule="evenodd" clip-rule="evenodd" d="M11.613 16.4617C11.2615 15.6831 10.9036 14.9431 10.5392 14.2419C10.1748 13.5406 9.52896 12.3121 8.60156 10.5565L7.22888 7.96851L8.76666 16.0463L10.9196 16.4617H11.613Z" fill="#CDCDCD"/>
<path id="Path-25-Copy" fill-rule="evenodd" clip-rule="evenodd" d="M14.0338 15.6299C13.4502 14.9278 12.6343 13.852 11.586 12.4024C10.5376 10.9528 9.97864 10.1562 9.90909 10.0126L9.73778 9.61823C9.65216 9.42113 9.58595 9.21617 9.54009 9.00623L9.53752 8.99446C9.49357 8.79328 9.48346 8.58619 9.5076 8.38169C9.53178 8.17692 9.58649 7.97692 9.66992 7.78836L10.0829 6.85498L9.12537 8.38607L12.4181 16.3122C12.5824 16.2868 12.8496 16.1954 13.2198 16.0381C13.5899 15.8807 13.8613 15.7447 14.0338 15.6299Z" fill="#CDCDCD"/>
<path id="Path-26" fill-rule="evenodd" clip-rule="evenodd" d="M10.075 6.87012C10.0785 7.04279 10.164 7.25476 10.3315 7.50603C10.5828 7.88294 11.4917 9.05361 11.8171 9.36597C12.034 9.57421 12.3624 9.75242 12.8022 9.9006C12.6952 9.883 12.6278 9.8742 12.6 9.8742C12.5333 9.8742 12.4596 9.88944 12.3697 9.90355C12.1728 9.93446 12.1314 9.91925 11.906 9.84446C11.6805 9.76967 11.2295 9.24814 10.7676 8.71806C10.3057 8.18798 10.2457 8.07096 10.1787 7.81255C10.134 7.64028 10.0994 7.32614 10.075 6.87012Z" fill="#CDCDCD"/>
<path id="Path-28" fill-rule="evenodd" clip-rule="evenodd" d="M14.3286 9.7688L11.9932 7.92727L12.4112 8.05843L14.3286 9.7688Z" fill="#CDCDCD"/>
<path id="Path-29" fill-rule="evenodd" clip-rule="evenodd" d="M13.5218 2.94658L13.0031 1.17627C12.9758 1.1868 12.9483 1.19956 12.9208 1.21453C12.8932 1.2295 12.8717 1.23351 12.8564 1.22654C12.85 1.33925 12.85 1.47625 12.8564 1.63755C12.8628 1.79885 12.8746 1.95876 12.8917 2.11728C12.9657 2.28043 13.0703 2.45272 13.2054 2.63415C13.3405 2.81558 13.4459 2.91972 13.5218 2.94658Z" fill="#CDCDCD"/>
<path id="Path-30" fill-rule="evenodd" clip-rule="evenodd" d="M12.7958 3.8999L14.2479 6.25523L13.0245 4.03607L12.7958 3.8999Z" fill="#CDCDCD"/>
<path id="Path-31" fill-rule="evenodd" clip-rule="evenodd" d="M16.4818 10.1807C16.6334 10.4333 16.7264 10.6071 16.7611 10.7019C16.7957 10.7968 16.7957 10.8847 16.7611 10.9658" fill="#CDCDCD"/>
</g>
<path id="Path-Copy-11" d="M12.5959 3.10265C13.1506 3.39104 13.3898 3.31535 13.842 3.34578C14.3684 3.38121 14.8532 3.69737 14.8532 3.69737C14.8532 3.69737 14.4372 3.60689 14.1109 3.62159C13.2168 3.66184 12.5869 3.94366 11.7036 3.74312C10.4132 3.4501 11.703 2.63844 12.5959 3.10265Z" fill="white"/>
<path id="Path-Copy-12" d="M12.1491 3.66761C12.7038 3.37923 12.943 3.45492 13.3952 3.42448C13.9216 3.38905 14.4064 3.07289 14.4064 3.07289C14.4064 3.07289 13.9904 3.16337 13.6641 3.14868C12.77 3.10843 12.1401 2.82661 11.2568 3.02715C9.96639 3.32016 11.2563 4.13182 12.1491 3.66761Z" fill="white"/>
<path id="Path-Copy-16" d="M13.4332 3.96667C13.8536 4.28668 14.7605 3.96667 14.7605 3.96667C14.7605 3.96667 14.3793 3.89516 14.1427 3.6691C13.9 3.43736 13.4106 3.43763 13.2228 3.21433C12.9085 2.84083 13.072 3.69176 13.4332 3.96667Z" fill="white"/>
</g>
</svg>
